<?xml version="1.0"?>
<svg width="640" height="480" xmlns="http://www.w3.org/2000/svg" xmlns:svg="http://www.w3.org/2000/svg">
 <!-- Created with SVG-edit - http://svg-edit.googlecode.com/ -->
 <g>
  <title>Layer 1</title>
  <g stroke="null" id="svg_7">
   <polygon stroke="#00007f" stroke-width="5" points="315.7023620605469,164.333984375 287.96240234375,242.41360473632812 203.49099731445312,244.09768676757812 270.81752014160156,294.03778076171875 246.3515625,373.1584167480469 315.7023620605469,325.9433898925781 385.05322265625,373.1584167480469 360.5872802734375,294.03778076171875 427.913818359375,244.09768676757812 343.4423828125,242.41360473632812 315.7023620605469,164.333984375 287.96240234375,242.41360473632812 " strokeWidth="5" strokecolor="#000000" fill="#7f0000" orient="point" r2="1.333333" r="3.333333" point="5" shape="star" id="svg_2" cy="132" cx="189"/>
   <polygon stroke="#00007f" stroke-width="5" points="369.09246826171875,178.69068908691406 283.9414978027344,287.10406494140625 146.16439819335938,245.69381713867188 146.16439819335938,111.6875 283.9414978027344,70.27729034423828 369.09246826171875,178.69068908691406 " strokeWidth="5" strokecolor="#000000" fill="#7f0000" edge="40.447497" orient="x" sides="5" shape="regularPoly" id="svg_3" cy="42" cx="68"/>
   <polygon stroke="#00007f" stroke-width="5" points="355.15618896484375,195.25616455078125 309.3330383300781,253.59783935546875 235.1895751953125,231.31326293945312 235.1895751953125,159.19903564453125 309.3330383300781,136.9145050048828 355.15618896484375,195.25616455078125 " strokeWidth="5" strokecolor="#000000" fill="#7f0000" edge="21.766437" orient="x" sides="5" shape="regularPoly" id="svg_4" cy="47" cx="80"/>
   <polygon stroke="#00007f" stroke-width="5" points="540.1729736328125,288.0227966308594 470.4494934082031,376.7940673828125 357.63446044921875,342.8865051269531 357.63446044921875,233.15908813476562 470.4494934082031,199.25148010253906 540.1729736328125,288.0227966308594 " strokeWidth="5" strokecolor="#000000" fill="#7f0000" edge="33.119313" orient="x" sides="5" shape="regularPoly" id="svg_5" cy="75" cx="122"/>
   <polygon stroke="#00007f" stroke-width="5" points="495.1029357910156,274.7704162597656 451.5723571777344,330.1930847167969 381.13848876953125,309.02349853515625 381.13848876953125,240.51727294921875 451.5723571777344,219.34771728515625 495.1029357910156,274.7704162597656 " strokeWidth="5" strokecolor="#000000" fill="#7f0000" edge="20.677417" orient="x" sides="5" shape="regularPoly" id="svg_6" cy="71" cx="120"/>
  </g>
 </g>
</svg>